<svg xmlns="http://www.w3.org/2000/svg"> 
   <symbol id="magnifying-glass" viewBox="0 0 20 19">
     <path d="m19.03 17.05-3.71-3.7c1-1.3 1.7-3 1.7-4.9 0-4.4-3.61-8-8.02-8a8.12 8.12 0 0 0-8.03 8.1c0 4.4 3.61 8 8.03 8 1.8 0 3.5-.6 4.91-1.7l3.71 3.7 1.4-1.5ZM9 14.55c-3.31 0-6.02-2.7-6.02-6a6.03 6.03 0 0 1 12.03 0c0 3.3-2.7 6-6.01 6Z" />
   </symbol>

 <symbol id="heart" viewBox="0 0 19 17"> 
 <path d="M9.44 17c-.3 0-.6-.1-.8-.4-5.41-6.1-6.72-7.5-7.02-7.9A5.4 5.4 0 0 1 6.03 0c1.3 0 2.51.5 3.51 1.3a5.47 5.47 0 0 1 9.03 4.1c0 1.3-.5 2.5-1.3 3.4l-7.02 7.9c-.2.2-.4.3-.8.3ZM3.43 7.5c.3.4 3.5 4 6.11 6.9l6.22-7c.5-.5.7-1.2.7-2 0-1.8-1.5-3.3-3.3-3.3-1 0-2.01.5-2.71 1.3-.3.3-.6.4-.9.4-.3 0-.6-.2-.8-.4a3.7 3.7 0 0 0-2.72-1.3c-1.8 0-3.3 1.5-3.3 3.3-.1.9.3 1.6.7 2.1-.1 0-.1 0 0 0Z"/>
 </symbol>

<symbol id="twitter" viewBox="0 0 18 15"> 
<path d="M11.6.2c1.8-.5 3.2.3 3.8 1.2.7-.2 1.4-.5 2.1-.7 0 .9-.6 1.5-.9 1.8.7.1 1.4-.6 1.4-.6-.2 1-1.1 1.8-1.7 2C16.1 10.7 13 15.1 5.7 15h-.5c-.4 0-4.4-.5-5.2-1.9 2.4.2 4.1-.4 5-1.2-1-.3-2.9-.4-3.2-2.9.4.1.6.2 1.3.1C1.8 8.3.4 7.5.5 5.3c.3.3 1.1.5 1.4.5C1.1 5.6-.2 2.5.9.9c1.9 1.9 4 3.6 7.6 3.8C8.7 2.3 9.7.8 11.6.2Z"/>
</symbol>

<symbol id="facebook" viewBox="0 0 10 18"> 
<path d="M7 0C4.8 0 3 1.8 3 4v2H0v4h3v8h4v-8h3V6H7V4h3V0H7Z"/>
</symbol>

<symbol id="youtube" viewBox="0 0 20 16"> 
 <path d="M17 0H2.9C1.2 0 0 1.5 0 3.2V12.7C0 14.5 1.2 16 2.9 16H17.2C18.7 16 20.1 14.5 20.1 12.8V3.2C19.9 1.5 18.7 0 17 0ZM7 11.8V4.2L13.7 8L7 11.8Z"/>
</symbol>

<symbol id="html-academy" viewBox="0 0 115 33"> 
<path d="M0 12.9v2.6h2.5v-2.6H0ZM11.6 4.5c-1.6 0-2.8.7-3.6 1.7h-.1V0h-2v15.5h2v-5.3c0-2.1 1.3-3.6 3.3-3.6 1.8 0 2.9 1.4 2.9 3.2v5.7h2V9.4c.1-3-1.8-4.9-4.5-4.9ZM26.6 4.8h-4.8V1.1h-2v3.8h-1.9v2h1.9v6c0 1.7 1 2.7 2.7 2.7h4.1v-2h-3.7c-.7 0-1.1-.4-1.1-1.1V6.8h4.8v-2ZM41.1 4.6c-1.6 0-2.9.8-3.5 2.1h-.1c-.6-1.2-1.8-2.1-3.4-2.1-1.4 0-2.5.8-3.1 1.8h-.1V4.8H29v10.6h2V10c0-2 1-3.5 2.6-3.5 1.5 0 2.4 1 2.4 2.6v6.3h2V9.8c0-2.4 1.4-3.3 2.6-3.3 1.5 0 2.4 1 2.4 2.6v6.3h2V8.9c.1-2.5-1.4-4.3-3.9-4.3ZM47.8 12.7c0 1.7 1 2.7 2.8 2.7h2v-2h-1.7c-.7 0-1.1-.4-1.1-1.1V0h-2v12.7ZM28.9 19.7c-.9-1.1-2.2-1.8-3.9-1.8-3.1 0-5.4 2.3-5.4 5.6s2.3 5.6 5.4 5.6c1.8 0 3-.8 3.8-1.9h.1v1.6h2V18.2h-2v1.5Zm-3.6 7.4c-2.2 0-3.6-1.6-3.6-3.6s1.4-3.6 3.6-3.6 3.6 1.6 3.6 3.6c0 1.9-1.4 3.6-3.6 3.6ZM44.2 22c-.5-2.4-2.6-4.1-5.4-4.1a5.4 5.4 0 0 0-5.6 5.6c0 3.1 2.2 5.6 5.6 5.6 2.8 0 4.9-1.8 5.4-4.2h-2.1a3.4 3.4 0 0 1-3.3 2.3c-2.2 0-3.6-1.6-3.6-3.6s1.4-3.6 3.6-3.6c1.6 0 2.8 1 3.3 2.2h2.1V22ZM55.1 19.7c-.9-1.1-2.2-1.8-3.9-1.8-3.1 0-5.4 2.3-5.4 5.6s2.3 5.6 5.4 5.6c1.8 0 3-.8 3.8-1.9h.1v1.6h2V18.2h-2v1.5Zm-3.6 7.4c-2.2 0-3.6-1.6-3.6-3.6s1.4-3.6 3.6-3.6 3.6 1.6 3.6 3.6c0 1.9-1.5 3.6-3.6 3.6ZM68.7 19.8c-.9-1.1-2.2-1.9-3.9-1.9-3.1 0-5.4 2.3-5.4 5.6s2.2 5.6 5.4 5.6c1.7 0 3-.8 3.8-1.8h.1v1.5h2V13.4h-2v6.4Zm-3.6 7.3c-2.2 0-3.6-1.6-3.6-3.6s1.4-3.6 3.6-3.6 3.6 1.6 3.6 3.6c-.1 2-1.5 3.6-3.6 3.6ZM78.3 17.9c-3.3 0-5.5 2.5-5.5 5.6 0 3 2.1 5.6 5.5 5.6 2.5 0 4.5-1.3 5.2-3.6h-2.1c-.5 1-1.6 1.6-3 1.6-1.9 0-3.3-1.3-3.4-2.9h8.8c.2-3.6-2-6.3-5.5-6.3Zm0 1.9c1.7 0 3 1 3.3 2.6h-6.5c.3-1.5 1.5-2.6 3.2-2.6ZM98.2 17.9c-1.6 0-2.9.8-3.6 2h-.1c-.6-1.2-1.8-2-3.4-2-1.4 0-2.5.7-3.1 1.8v-1.5h-1.9v10.6h2v-5.4c0-2 1-3.4 2.6-3.5 1.5 0 2.4 1 2.4 2.6v6.3h2v-5.6c0-2.4 1.4-3.3 2.6-3.3 1.5 0 2.4 1 2.4 2.6v6.3h2v-6.5c.1-2.6-1.4-4.4-3.9-4.4ZM109.4 27l-3.6-8.9h-2.2l4.8 11.6c-.3.9-.7 1.2-1.7 1.2h-2.5v2h2.5c1.8 0 2.8-.8 3.5-2.6l4.7-12.2h-2.1l-3.4 8.9Z"/>
</symbol>


<symbol id="chek_mark" viewBox="0 0 13 10"> 
<path d="M11 0L4.5 7.4L1.1 3.5L0 4.7L4.5 9.9L12.2 1.3L11 0Z"/>
</symbol>


<symbol id="cross-x" viewBox="0 0 14 14">
<path d="M14 1.3 12.7 0 7 5.7 1.3 0 0 1.3 5.7 7 0 12.7 1.3 14 7 8.3l5.7 5.7 1.3-1.3L8.3 7 14 1.3Z" />
</symbol>

<symbol id="info" viewBox="0 0 1 9">
<path d="M0 9H1L1 3H0L0 9Z" fill="white"/>
<path d="M1 0H0V1H1V0Z" fill="white"/>
</symbol>

<symbol id="calendar" viewBox="0 0 15 15">
<path d="M5.5 10C5.8 10 6 9.8 6 9.5C6 9.2 5.8 9 5.5 9C5.2 9 5 9.2 5 9.5C5 9.8 5.2 10 5.5 10Z" fill="black"/>
<path d="M14 2H12V0H11V2H4V0H3V2H1C0.4 2 0 2.4 0 3V6V7V14C0 14.5 0.4 15 1 15H14C14.5 15 15 14.5 15 14V7V6V3C15 2.4 14.5 2 14 2ZM14 14H1V7H14V14ZM1 6V3H3V5H4V3H11V5H12V3H14V6H1Z" fill="black"/>
<path d="M7.5 10C7.8 10 8 9.8 8 9.5C8 9.2 7.8 9 7.5 9C7.2 9 7 9.2 7 9.5C7 9.8 7.2 10 7.5 10Z" fill="black"/>
<path d="M9.5 10C9.8 10 10 9.8 10 9.5C10 9.2 9.8 9 9.5 9C9.2 9 9 9.2 9 9.5C9 9.8 9.2 10 9.5 10Z" fill="black"/>
<path d="M5.5 11C5.2 11 5 11.2 5 11.5C5 11.8 5.2 12 5.5 12C5.8 12 6 11.8 6 11.5C6 11.2 5.8 11 5.5 11Z" fill="black"/>
<path d="M3.5 10C3.8 10 4 9.8 4 9.5C4 9.2 3.8 9 3.5 9C3.2 9 3 9.2 3 9.5C3 9.8 3.2 10 3.5 10Z" fill="black"/>
<path d="M3.5 11C3.2 11 3 11.2 3 11.5C3 11.8 3.2 12 3.5 12C3.8 12 4 11.8 4 11.5C4 11.2 3.8 11 3.5 11Z" fill="black"/>
<path d="M7.5 11C7.2 11 7 11.2 7 11.5C7 11.8 7.2 12 7.5 12C7.8 12 8 11.8 8 11.5C8 11.2 7.8 11 7.5 11Z" fill="black"/>
<path d="M9.5 11C9.2 11 9 11.2 9 11.5C9 11.8 9.2 12 9.5 12C9.8 12 10 11.8 10 11.5C10 11.2 9.8 11 9.5 11Z" fill="black"/>
<path d="M11.5 10C11.8 10 12 9.8 12 9.5C12 9.2 11.8 9 11.5 9C11.2 9 11 9.2 11 9.5C11 9.8 11.2 10 11.5 10Z" fill="black"/>
<path d="M11.5 11C11.2 11 11 11.2 11 11.5C11 11.8 11.2 12 11.5 12C11.8 12 12 11.8 12 11.5C12 11.2 11.8 11 11.5 11Z" fill="black"/>
</symbol>

<symbol id="minus" viewBox="0 0 13 1">
<path  d="M0 0L0 1L13 1V0L0 0Z" />
</symbol>

<symbol id="plus" viewBox="0 0 13 13">
<path  d="M13 6H7V0H6V6H0V7H6V13H7V7H13V6Z"/>
</symbol>


 </svg>


 