<svg fill="#000" fill-opacity=".3" xmlns="http://www.w3.org/2000/svg" viewBox="0 0 15 15">
   <path d="M5.5 10c.3 0 .5-.2.5-.5S5.8 9 5.5 9s-.5.2-.5.5.2.5.5.5ZM8 9.5c0 .3-.2.5-.5.5S7 9.8 7 9.5s.2-.5.5-.5.5.2.5.5ZM9.5 10c.3 0 .5-.2.5-.5S9.8 9 9.5 9s-.5.2-.5.5.2.5.5.5ZM5 11.5c0-.3.2-.5.5-.5s.5.2.5.5-.2.5-.5.5-.5-.2-.5-.5ZM3.5 10c.3 0 .5-.2.5-.5S3.8 9 3.5 9s-.5.2-.5.5.2.5.5.5ZM3 11.5c0-.3.2-.5.5-.5s.5.2.5.5-.2.5-.5.5-.5-.2-.5-.5ZM7.5 11c-.3 0-.5.2-.5.5s.2.5.5.5.5-.2.5-.5-.2-.5-.5-.5ZM9 11.5c0-.3.2-.5.5-.5s.5.2.5.5-.2.5-.5.5-.5-.2-.5-.5ZM11.5 10c.3 0 .5-.2.5-.5s-.2-.5-.5-.5-.5.2-.5.5.2.5.5.5ZM11 11.5c0-.3.2-.5.5-.5s.5.2.5.5-.2.5-.5.5-.5-.2-.5-.5Z" />
   <path fill-rule="evenodd" clip-rule="evenodd" d="M14 2h-2V0h-1v2H4V0H3v2H1c-.6 0-1 .4-1 1v11c0 .5.4 1 1 1h13c.5 0 1-.5 1-1V3c0-.6-.5-1-1-1Zm0 5v7H1V7h13ZM1 6V3h2v2h1V3h7v2h1V3h2v3H1Z" />
 </svg>